<?xml version="1.0" encoding="UTF-8" standalone="no"?>
<!DOCTYPE svg PUBLIC "-//W3C//DTD SVG 1.1//EN" "http://www.w3.org/Graphics/SVG/1.1/DTD/svg11.dtd">
<svg version="1.1" xmlns="http://www.w3.org/2000/svg" xmlns:xlink="http://www.w3.org/1999/xlink" preserveAspectRatio="xMidYMid meet" viewBox="0 0 130.667 130.667" width="130.67" height="130.67"><defs><path d="M60.05 112.15C59.92 107.57 62.92 103.76 66.73 103.65C70.55 103.54 73.75 107.16 73.87 111.74C73.99 116.32 71 120.12 67.37 127.22C63.37 120.35 60.17 116.73 60.05 112.15Z" id="a3LkqnbiJK"></path><path d="M98.45 81.22C98.45 101.7 83.86 118.33 65.88 118.33C47.91 118.33 33.32 101.7 33.32 81.22C33.32 60.73 47.91 44.1 65.88 44.1C83.86 44.1 98.45 60.73 98.45 81.22Z" id="a3hcTLVZrr"></path><path d="M42 66.72L88.76 66.72L88.76 78.07L42 78.07L42 66.72Z" id="a7cEto6h3"></path><path d="M35.57 85.06L96.53 85.06L96.53 96.41L35.57 96.41L35.57 85.06Z" id="a4eKc1iTl"></path><path d="M17.88 59.84C10.49 67.47 9.95 79.42 16.66 86.53C23.38 93.63 34.81 93.21 42.19 85.58C49.58 77.95 50.13 66 54.67 47.25C36.7 51.78 25.26 52.21 17.88 59.84Z" id="g5yaobdzBg"></path><path d="M91.11 85.56C98.96 92.68 110.39 92.33 116.65 84.78C122.91 77.23 121.63 65.34 113.78 58.23C105.94 51.11 94.5 51.47 76.28 48.17C81.98 66.56 83.27 78.45 91.11 85.56Z" id="aO1rWgAZn"></path><path d="M88.76 38.95C88.76 49.94 78.29 58.86 65.38 58.86C52.48 58.86 42 49.94 42 38.95C42 27.96 52.48 19.04 65.38 19.04C78.29 19.04 88.76 27.96 88.76 38.95Z" id="g19tb7BLN0"></path><path d="M88.76 9.95L76.28 22.18" id="anqYFRpQu"></path><path d="M39.54 9.95L51.76 22.18" id="c2HQzxkxYW"></path><path d="M42 8.91C42 10.6 40.06 11.97 37.66 11.97C35.26 11.97 33.32 10.6 33.32 8.91C33.32 7.22 35.26 5.85 37.66 5.85C40.06 5.85 42 7.22 42 8.91Z" id="b8Fe5jp4r"></path><path d="M95.31 8.91C95.31 10.6 93.57 11.97 91.43 11.97C89.29 11.97 87.55 10.6 87.55 8.91C87.55 7.22 89.29 5.85 91.43 5.85C93.57 5.85 95.31 7.22 95.31 8.91Z" id="b1FVp6bxBA"></path></defs><g><g><g><g><use xlink:href="#a3LkqnbiJK" opacity="1" fill="#3b2a45" fill-opacity="1"></use></g><g><use xlink:href="#a3hcTLVZrr" opacity="1" fill="#e9b346" fill-opacity="1"></use><g><use xlink:href="#a3hcTLVZrr" opacity="1" fill-opacity="0" stroke="#3b2a45" stroke-width="4" stroke-opacity="1"></use></g></g><g><use xlink:href="#a7cEto6h3" opacity="1" fill="#3b2a45" fill-opacity="1"></use></g><g><use xlink:href="#a4eKc1iTl" opacity="1" fill="#3b2a45" fill-opacity="1"></use></g><g><use xlink:href="#g5yaobdzBg" opacity="1" fill="#ffffff" fill-opacity="1"></use><g><use xlink:href="#g5yaobdzBg" opacity="1" fill-opacity="0" stroke="#3b2a45" stroke-width="3" stroke-opacity="1"></use></g></g><g><use xlink:href="#aO1rWgAZn" opacity="1" fill="#ffffff" fill-opacity="1"></use><g><use xlink:href="#aO1rWgAZn" opacity="1" fill-opacity="0" stroke="#3b2a45" stroke-width="3" stroke-opacity="1"></use></g></g><g><use xlink:href="#g19tb7BLN0" opacity="1" fill="#3b2a45" fill-opacity="1"></use></g><g><g><use xlink:href="#anqYFRpQu" opacity="1" fill-opacity="0" stroke="#3b2a45" stroke-width="3" stroke-opacity="1"></use></g></g><g><g><use xlink:href="#c2HQzxkxYW" opacity="1" fill-opacity="0" stroke="#3b2a45" stroke-width="3" stroke-opacity="1"></use></g></g><g><use xlink:href="#b8Fe5jp4r" opacity="1" fill="#3b2a45" fill-opacity="1"></use><g><use xlink:href="#b8Fe5jp4r" opacity="1" fill-opacity="0" stroke="#3b2a45" stroke-width="3" stroke-opacity="1"></use></g></g><g><use xlink:href="#b1FVp6bxBA" opacity="1" fill="#3b2a45" fill-opacity="1"></use><g><use xlink:href="#b1FVp6bxBA" opacity="1" fill-opacity="0" stroke="#3b2a45" stroke-width="3" stroke-opacity="1"></use></g></g></g></g></g></svg>